<svg width="35" height="28" fill="none" xmlns="http://www.w3.org/2000/svg"><path d="M13.611 19.861c-2.285 0-4.437-.41-6.328-1.136-1.906 1.491-4.246 2.4-6.73 2.661a.502.502 0 01-.541-.365c-.06-.241.126-.39.31-.566.913-.877 2.02-1.567 2.452-4.514C1.034 14.273 0 12.19 0 9.93 0 4.445 6.094 0 13.611 0s13.611 4.445 13.611 9.93c0 5.49-6.094 9.931-13.61 9.931zm21.09 6.512c-.848-.797-1.875-1.424-2.277-4.104 4.181-3.923 3.17-9.536-2.29-12.582.003.081.005.162.005.244 0 7.443-7.874 13.149-17.272 12.834 2.316 1.882 5.71 3.068 9.494 3.068 2.122 0 4.12-.373 5.876-1.033 1.77 1.356 3.942 2.183 6.25 2.42.23.024.447-.12.502-.333.056-.218-.117-.353-.289-.514z" fill="#fff"/></svg>