<svg width="87" height="82" fill="none" xmlns="http://www.w3.org/2000/svg"><path d="M61.449 5.534l-35.755-.046a4.38 4.38 0 00-3.8 2.194L3.954 38.749a4.415 4.415 0 00-.009 4.4l17.816 31.113a4.374 4.374 0 003.79 2.205l35.756.046a4.383 4.383 0 003.799-2.195l17.94-31.067a4.417 4.417 0 00.009-4.4L65.239 7.738a4.377 4.377 0 00-3.79-2.204z" fill="#fff" fill-opacity=".9"/><path d="M39.75 51.5c-1.313 0-2.25-1.031-2.25-2.25v-16.5c0-1.172.937-2.203 2.25-2.203.374 0 .796.094 1.171.328l13.5 8.25A2.205 2.205 0 0155.5 41c0 .797-.422 1.547-1.078 1.922l-13.5 8.25a2.227 2.227 0 01-1.172.328z" fill="#14387F"/></svg>