<svg width="35" height="28" viewBox="0 0 35 28" fill="none" xmlns="http://www.w3.org/2000/svg">
<path d="M13.6111 19.8611C11.3264 19.8611 9.1737 19.4501 7.28297 18.7248C5.37651 20.2165 3.03746 21.1255 0.552526 21.386C0.53456 21.3879 0.51651 21.3889 0.498446 21.3889C0.271432 21.3889 0.0663541 21.2371 0.0113021 21.0206C-0.0482465 20.7799 0.138177 20.6318 0.322778 20.4552C1.23527 19.5778 2.34147 18.8881 2.77411 15.9406C1.0339 14.2726 0 12.1906 0 9.93058C0 4.44549 6.09443 0 13.6111 0C21.1278 0 27.2222 4.44542 27.2222 9.93058C27.2221 15.4195 21.1278 19.8611 13.6111 19.8611ZM34.7002 26.3734C33.8529 25.5758 32.8257 24.9487 32.424 22.2692C36.6051 18.3458 35.5941 12.7333 30.1348 9.68716C30.1367 9.76822 30.1388 9.84922 30.1388 9.93058C30.1388 17.3737 22.2649 23.0795 12.8666 22.7652C15.1829 24.6466 18.5777 25.8333 22.361 25.8333C24.4825 25.8333 26.4815 25.4598 28.2371 24.8003C30.0074 26.1564 32.1794 26.9827 34.4869 27.2196C34.7169 27.2436 34.9343 27.0997 34.9894 26.8874C35.0448 26.6686 34.8717 26.5339 34.7002 26.3734Z" fill="white"/>
</svg>
