<svg xmlns="http://www.w3.org/2000/svg" viewBox="0 0 21 21"><path d="M21 10.4a.5.5 0 00-.48-.49 2 2 0 01-1.73-1.21.5.5 0 00-.32-.28.48.48 0 00-.42.08 2 2 0 01-3.17-1.83.52.52 0 00-.55-.55h-.18A2 2 0 0112.5 3a.48.48 0 00.08-.42.54.54 0 00-.28-.33A2 2 0 0111.13.48a.5.5 0 00-.49-.48h-.14A10.5 10.5 0 1021 10.5zM2.42 6.45a1 1 0 01-.42-.1 9.3 9.3 0 011.14-1.84 1.09 1.09 0 01.38.83 1.11 1.11 0 01-1.1 1.11zm4.23 9.38a1.11 1.11 0 111.1-1.11 1.11 1.11 0 01-1.1 1.11zM8 9.22a2.12 2.12 0 112.12-2.11A2.12 2.12 0 018 9.22zm4.38 5.6a1.71 1.71 0 111.71-1.71 1.72 1.72 0 01-1.67 1.71zm6 1a1.1 1.1 0 01.62-2 1 1 0 01.39.07 9.24 9.24 0 01-1.02 1.91z" fill="#fff"/></svg>