<svg width="87" height="82" viewBox="0 0 87 82" fill="none" xmlns="http://www.w3.org/2000/svg">
<path d="M61.4489 5.5336L25.6935 5.48761C24.128 5.48532 22.6795 6.32188 21.8944 7.68198L3.95448 38.7494C3.16872 40.1094 3.16545 41.7865 3.94521 43.1488L21.7614 74.2616C22.5411 75.6239 23.9857 76.4643 25.5512 76.4666L61.3066 76.5126C62.8722 76.5142 64.3207 75.6777 65.1058 74.3176L83.0456 43.2508C83.8314 41.8908 83.8347 40.2137 83.0549 38.8514L65.2395 7.73802C64.459 6.3763 63.0144 5.53589 61.4489 5.5336Z" fill="white" fill-opacity="0.9"/>
<path d="M39.7493 51.5C38.4368 51.5 37.4993 50.4688 37.4993 49.25V32.75C37.4993 31.5781 38.4368 30.5469 39.7493 30.5469C40.1243 30.5469 40.5461 30.6406 40.9211 30.875L54.4211 39.125C55.0774 39.5 55.4993 40.25 55.4993 41C55.4993 41.7969 55.0774 42.5469 54.4211 42.9219L40.9211 51.1719C40.5461 51.4062 40.1243 51.5 39.7493 51.5Z" fill="#14387F"/>
</svg>
